<?xml version="1.0" encoding="UTF-8"?>
<!--Generator: Apple Native CoreSVG 232.5-->
<!DOCTYPE svg
PUBLIC "-//W3C//DTD SVG 1.1//EN"
       "http://www.w3.org/Graphics/SVG/1.1/DTD/svg11.dtd">
<svg version="1.1" xmlns="http://www.w3.org/2000/svg" xmlns:xlink="http://www.w3.org/1999/xlink" width="118.286" height="118.286">
 <g>
  <rect height="118.286" opacity="0" width="118.286" x="0" y="0"/>
  <path d="M59.1064 118.213C91.4062 118.213 118.286 91.4062 118.286 59.1064C118.286 26.8066 91.333 0 59.0332 0C26.8066 0 0 26.8066 0 59.1064C0 91.4062 26.8799 118.213 59.1064 118.213ZM59.1064 107.08C32.5195 107.08 11.2793 85.7666 11.2793 59.1064C11.2793 32.4463 32.4463 11.1328 59.0332 11.1328C85.6934 11.1328 107.08 32.4463 107.08 59.1064C107.08 85.7666 85.7666 107.08 59.1064 107.08ZM98.584 97.1924L98.3643 96.46C95.7275 87.8906 80.4199 78.8086 59.1064 78.8086C37.793 78.8086 22.5586 87.8906 19.9219 96.46L19.7021 97.1924C30.1758 107.373 48.7793 113.159 59.1064 113.159C69.5068 113.159 88.1104 107.373 98.584 97.1924ZM59.1064 69.1406C70.166 69.2871 78.8818 59.8389 78.8818 47.4609C78.8818 35.8154 70.166 26.2207 59.1064 26.2207C48.1201 26.2207 39.3311 35.8154 39.4043 47.4609C39.4775 59.8389 48.0469 68.9941 59.1064 69.1406Z" fill="#000000" fill-opacity="0.85"/>
 </g>
</svg>
