<?xml version="1.0" encoding="UTF-8"?>
<!--Generator: Apple Native CoreSVG 336-->
<!DOCTYPE svg
PUBLIC "-//W3C//DTD SVG 1.1//EN"
       "http://www.w3.org/Graphics/SVG/1.1/DTD/svg11.dtd">
<svg version="1.1" xmlns="http://www.w3.org/2000/svg" xmlns:xlink="http://www.w3.org/1999/xlink" viewBox="0 0 3300 2200">
 <!--glyph: "101A59", point size: 100.0, font version: "20.0d10e1", template writer version: "138.0.0"-->
 <style>.monochrome-0 {-sfsymbols-motion-group:1;-sfsymbols-layer-tags:shield shield.slash}
.monochrome-1 {opacity:0.0;-sfsymbols-clear-behind:true;-sfsymbols-motion-group:0;-sfsymbols-layer-tags:_slash shield.slash}
.monochrome-2 {-sfsymbols-motion-group:0;-sfsymbols-layer-tags:_slash shield.slash}

.multicolor-0:tintColor {-sfsymbols-motion-group:1;-sfsymbols-layer-tags:shield shield.slash}
.multicolor-1:tintColor {opacity:0.0;-sfsymbols-clear-behind:true;-sfsymbols-motion-group:0;-sfsymbols-layer-tags:_slash shield.slash}
.multicolor-2:tintColor {-sfsymbols-motion-group:0;-sfsymbols-layer-tags:_slash shield.slash}

.hierarchical-0:secondary {-sfsymbols-motion-group:1;-sfsymbols-layer-tags:shield shield.slash}
.hierarchical-1:primary {opacity:0.0;-sfsymbols-clear-behind:true;-sfsymbols-motion-group:0;-sfsymbols-layer-tags:_slash shield.slash}
.hierarchical-2:primary {-sfsymbols-motion-group:0;-sfsymbols-layer-tags:_slash shield.slash}

.SFSymbolsPreviewWireframe {fill:none;opacity:1.0;stroke:black;stroke-width:0.5}
</style>
 <g id="Notes">
  <rect height="2200" id="artboard" style="fill:white;opacity:1" width="3300" x="0" y="0"/>
  <line style="fill:none;stroke:black;opacity:1;stroke-width:0.5;" x1="263" x2="3036" y1="292" y2="292"/>
  <text style="stroke:none;fill:black;font-family:sans-serif;font-size:13;font-weight:bold;" transform="matrix(1 0 0 1 263 322)">Weight/Scale Variations</text>
  <text style="stroke:none;fill:black;font-family:sans-serif;font-size:13;text-anchor:middle;" transform="matrix(1 0 0 1 559.711 322)">Ultralight</text>
  <text style="stroke:none;fill:black;font-family:sans-serif;font-size:13;text-anchor:middle;" transform="matrix(1 0 0 1 856.422 322)">Thin</text>
  <text style="stroke:none;fill:black;font-family:sans-serif;font-size:13;text-anchor:middle;" transform="matrix(1 0 0 1 1153.13 322)">Light</text>
  <text style="stroke:none;fill:black;font-family:sans-serif;font-size:13;text-anchor:middle;" transform="matrix(1 0 0 1 1449.84 322)">Regular</text>
  <text style="stroke:none;fill:black;font-family:sans-serif;font-size:13;text-anchor:middle;" transform="matrix(1 0 0 1 1746.56 322)">Medium</text>
  <text style="stroke:none;fill:black;font-family:sans-serif;font-size:13;text-anchor:middle;" transform="matrix(1 0 0 1 2043.27 322)">Semibold</text>
  <text style="stroke:none;fill:black;font-family:sans-serif;font-size:13;text-anchor:middle;" transform="matrix(1 0 0 1 2339.98 322)">Bold</text>
  <text style="stroke:none;fill:black;font-family:sans-serif;font-size:13;text-anchor:middle;" transform="matrix(1 0 0 1 2636.69 322)">Heavy</text>
  <text style="stroke:none;fill:black;font-family:sans-serif;font-size:13;text-anchor:middle;" transform="matrix(1 0 0 1 2933.4 322)">Black</text>
  <line style="fill:none;stroke:black;opacity:1;stroke-width:0.5;" x1="263" x2="3036" y1="1903" y2="1903"/>
  <g transform="matrix(0.2 0 0 0.2 263 1933)">
   <path d="m46.2402 4.15039c21.7773 0 39.4531-17.627 39.4531-39.4043s-17.6758-39.4043-39.4531-39.4043c-21.7285 0-39.4043 17.627-39.4043 39.4043s17.6758 39.4043 39.4043 39.4043Zm0-7.42188c-17.6758 0-31.9336-14.3066-31.9336-31.9824s14.2578-31.9824 31.9336-31.9824 31.9824 14.3066 31.9824 31.9824-14.3066 31.9824-31.9824 31.9824Zm-17.9688-31.9824c0 2.14844 1.51367 3.61328 3.75977 3.61328h10.498v10.5957c0 2.19727 1.46484 3.71094 3.61328 3.71094 2.24609 0 3.71094-1.51367 3.71094-3.71094v-10.5957h10.5957c2.19727 0 3.71094-1.46484 3.71094-3.61328 0-2.19727-1.51367-3.71094-3.71094-3.71094h-10.5957v-10.5469c0-2.24609-1.46484-3.75977-3.71094-3.75977-2.14844 0-3.61328 1.51367-3.61328 3.75977v10.5469h-10.498c-2.24609 0-3.75977 1.51367-3.75977 3.71094Z"/>
  </g>
  <g transform="matrix(0.2 0 0 0.2 281.506 1933)">
   <path d="m58.5449 14.5508c27.4902 0 49.8047-22.3145 49.8047-49.8047s-22.3145-49.8047-49.8047-49.8047-49.8047 22.3145-49.8047 49.8047 22.3145 49.8047 49.8047 49.8047Zm0-8.30078c-22.9492 0-41.5039-18.5547-41.5039-41.5039s18.5547-41.5039 41.5039-41.5039 41.5039 18.5547 41.5039 41.5039-18.5547 41.5039-41.5039 41.5039Zm-22.6562-41.5039c0 2.39258 1.66016 4.00391 4.15039 4.00391h14.3555v14.4043c0 2.44141 1.66016 4.15039 4.05273 4.15039 2.44141 0 4.15039-1.66016 4.15039-4.15039v-14.4043h14.4043c2.44141 0 4.15039-1.61133 4.15039-4.00391 0-2.44141-1.70898-4.15039-4.15039-4.15039h-14.4043v-14.3555c0-2.49023-1.70898-4.19922-4.15039-4.19922-2.39258 0-4.05273 1.70898-4.05273 4.19922v14.3555h-14.3555c-2.49023 0-4.15039 1.70898-4.15039 4.15039Z"/>
  </g>
  <g transform="matrix(0.2 0 0 0.2 304.924 1933)">
   <path d="m74.8535 28.3203c35.1074 0 63.623-28.4668 63.623-63.5742s-28.5156-63.623-63.623-63.623-63.5742 28.5156-63.5742 63.623 28.4668 63.5742 63.5742 63.5742Zm0-9.08203c-30.127 0-54.4922-24.3652-54.4922-54.4922s24.3652-54.4922 54.4922-54.4922 54.4922 24.3652 54.4922 54.4922-24.3652 54.4922-54.4922 54.4922Zm-28.8574-54.4922c0 2.58789 1.85547 4.39453 4.58984 4.39453h19.7266v19.7754c0 2.68555 1.85547 4.58984 4.44336 4.58984 2.68555 0 4.54102-1.85547 4.54102-4.58984v-19.7754h19.7754c2.68555 0 4.58984-1.80664 4.58984-4.39453 0-2.73438-1.85547-4.58984-4.58984-4.58984h-19.7754v-19.7266c0-2.73438-1.85547-4.63867-4.54102-4.63867-2.58789 0-4.44336 1.9043-4.44336 4.63867v19.7266h-19.7266c-2.73438 0-4.58984 1.85547-4.58984 4.58984Z"/>
  </g>
  <text style="stroke:none;fill:black;font-family:sans-serif;font-size:13;font-weight:bold;" transform="matrix(1 0 0 1 263 1953)">Design Variations</text>
  <text style="stroke:none;fill:black;font-family:sans-serif;font-size:13;" transform="matrix(1 0 0 1 263 1971)">Symbols are supported in up to nine weights and three scales.</text>
  <text style="stroke:none;fill:black;font-family:sans-serif;font-size:13;" transform="matrix(1 0 0 1 263 1989)">For optimal layout with text and other symbols, vertically align</text>
  <text style="stroke:none;fill:black;font-family:sans-serif;font-size:13;" transform="matrix(1 0 0 1 263 2007)">symbols with the adjacent text.</text>
  <line style="fill:none;stroke:#00AEEF;stroke-width:0.5;opacity:1.0;" x1="776" x2="776" y1="1919" y2="1933"/>
  <g transform="matrix(0.2 0 0 0.2 776 1933)">
   <path d="m16.5527 0.78125c2.58789 0 3.85742-0.976562 4.78516-3.71094l6.29883-17.2363h28.8086l6.29883 17.2363c0.927734 2.73438 2.19727 3.71094 4.73633 3.71094 2.58789 0 4.24805-1.5625 4.24805-4.00391 0-0.830078-0.146484-1.61133-0.537109-2.63672l-22.9004-60.9863c-1.12305-2.97852-3.125-4.49219-6.25-4.49219-3.02734 0-5.07812 1.46484-6.15234 4.44336l-22.9004 61.084c-0.390625 1.02539-0.537109 1.80664-0.537109 2.63672 0 2.44141 1.5625 3.95508 4.10156 3.95508Zm13.4766-28.3691 11.8652-32.8613h0.244141l11.8652 32.8613Z"/>
  </g>
  <line style="fill:none;stroke:#00AEEF;stroke-width:0.5;opacity:1.0;" x1="792.836" x2="792.836" y1="1919" y2="1933"/>
  <text style="stroke:none;fill:black;font-family:sans-serif;font-size:13;font-weight:bold;" transform="matrix(1 0 0 1 776 1953)">Margins</text>
  <text style="stroke:none;fill:black;font-family:sans-serif;font-size:13;" transform="matrix(1 0 0 1 776 1971)">Leading and trailing margins on the left and right side of each symbol</text>
  <text style="stroke:none;fill:black;font-family:sans-serif;font-size:13;" transform="matrix(1 0 0 1 776 1989)">can be adjusted by modifying the x-location of the margin guidelines.</text>
  <text style="stroke:none;fill:black;font-family:sans-serif;font-size:13;" transform="matrix(1 0 0 1 776 2007)">Modifications are automatically applied proportionally to all</text>
  <text style="stroke:none;fill:black;font-family:sans-serif;font-size:13;" transform="matrix(1 0 0 1 776 2025)">scales and weights.</text>
  <g transform="matrix(0.2 0 0 0.2 1289 1933)">
   <path d="m14.209 9.32617 8.49609 8.54492c4.29688 4.3457 9.22852 4.05273 13.8672-1.07422l53.4668-58.9355-4.83398-4.88281-53.0762 58.3984c-1.75781 2.00195-3.41797 2.49023-5.76172 0.146484l-5.85938-5.81055c-2.34375-2.29492-1.80664-4.00391 0.195312-5.81055l57.373-54.0039-4.88281-4.83398-57.959 54.4434c-4.93164 4.58984-5.32227 9.47266-1.02539 13.8184Zm32.0801-90.9668c-2.09961 2.05078-2.24609 4.93164-1.07422 6.88477 1.17188 1.80664 3.4668 2.97852 6.68945 2.14844 7.32422-1.70898 14.9414-2.00195 22.0703 2.68555l-2.92969 7.27539c-1.70898 4.15039-0.830078 7.08008 1.85547 9.81445l11.4746 11.5723c2.44141 2.44141 4.49219 2.53906 7.32422 2.05078l5.32227-0.976562 3.32031 3.36914-0.195312 2.7832c-0.195312 2.49023 0.439453 4.39453 2.88086 6.78711l3.80859 3.71094c2.39258 2.39258 5.46875 2.53906 7.8125 0.195312l14.5508-14.5996c2.34375-2.34375 2.24609-5.32227-0.146484-7.71484l-3.85742-3.80859c-2.39258-2.39258-4.24805-3.17383-6.64062-2.97852l-2.88086 0.244141-3.22266-3.17383 1.2207-5.61523c0.634766-2.83203-0.146484-5.0293-3.07617-7.95898l-10.9863-10.9375c-16.6992-16.6016-38.8672-16.2109-53.3203-1.75781Zm7.4707 1.85547c12.1582-8.88672 28.6133-7.37305 39.7461 3.75977l12.1582 12.0605c1.17188 1.17188 1.36719 2.09961 1.02539 3.80859l-1.61133 7.42188 7.51953 7.42188 4.93164-0.292969c1.26953-0.0488281 1.66016 0.0488281 2.63672 1.02539l2.88086 2.88086-12.207 12.207-2.88086-2.88086c-0.976562-0.976562-1.12305-1.36719-1.07422-2.68555l0.341797-4.88281-7.4707-7.42188-7.61719 1.26953c-1.61133 0.341797-2.34375 0.195312-3.56445-0.976562l-10.0098-10.0098c-1.26953-1.17188-1.41602-2.00195-0.634766-3.85742l4.39453-10.4492c-7.8125-7.27539-17.9688-10.4004-28.125-7.42188-0.78125 0.195312-1.07422-0.439453-0.439453-0.976562Z"/>
  </g>
  <text style="stroke:none;fill:black;font-family:sans-serif;font-size:13;font-weight:bold;" transform="matrix(1 0 0 1 1289 1953)">Exporting</text>
  <text style="stroke:none;fill:black;font-family:sans-serif;font-size:13;" transform="matrix(1 0 0 1 1289 1971)">Symbols should be outlined when exporting to ensure the</text>
  <text style="stroke:none;fill:black;font-family:sans-serif;font-size:13;" transform="matrix(1 0 0 1 1289 1989)">design is preserved when submitting to Xcode.</text>
  <text id="template-version" style="stroke:none;fill:black;font-family:sans-serif;font-size:13;text-anchor:end;" transform="matrix(1 0 0 1 3036 1933)">Template v.6.0</text>
  <text style="stroke:none;fill:black;font-family:sans-serif;font-size:13;text-anchor:end;" transform="matrix(1 0 0 1 3036 1951)">Requires Xcode 16 or greater</text>
  <text id="descriptive-name" style="stroke:none;fill:black;font-family:sans-serif;font-size:13;text-anchor:end;" transform="matrix(1 0 0 1 3036 1969)">Generated from shield.slash</text>
  <text style="stroke:none;fill:black;font-family:sans-serif;font-size:13;text-anchor:end;" transform="matrix(1 0 0 1 3036 1987)">Typeset at 100.0 points</text>
  <text style="stroke:none;fill:black;font-family:sans-serif;font-size:13;" transform="matrix(1 0 0 1 263 726)">Small</text>
  <text style="stroke:none;fill:black;font-family:sans-serif;font-size:13;" transform="matrix(1 0 0 1 263 1156)">Medium</text>
  <text style="stroke:none;fill:black;font-family:sans-serif;font-size:13;" transform="matrix(1 0 0 1 263 1586)">Large</text>
 </g>
 <g id="Guides">
  <g id="H-reference" style="fill:#27AAE1;stroke:none;" transform="matrix(1 0 0 1 339 696)">
   <path d="M0.993654 0L3.63775 0L29.3281-67.1323L30.0303-67.1323L30.0303-70.459L28.1226-70.459ZM11.6885-24.4799L46.9815-24.4799L46.2315-26.7285L12.4385-26.7285ZM55.1196 0L57.7637 0L30.6382-70.459L29.4326-70.459L29.4326-67.1323Z"/>
  </g>
  <line id="Baseline-S" style="fill:none;stroke:#27AAE1;opacity:1;stroke-width:0.5;" x1="263" x2="3036" y1="696" y2="696"/>
  <line id="Capline-S" style="fill:none;stroke:#27AAE1;opacity:1;stroke-width:0.5;" x1="263" x2="3036" y1="625.541" y2="625.541"/>
  <g id="H-reference" style="fill:#27AAE1;stroke:none;" transform="matrix(1 0 0 1 339 1126)">
   <path d="M0.993654 0L3.63775 0L29.3281-67.1323L30.0303-67.1323L30.0303-70.459L28.1226-70.459ZM11.6885-24.4799L46.9815-24.4799L46.2315-26.7285L12.4385-26.7285ZM55.1196 0L57.7637 0L30.6382-70.459L29.4326-70.459L29.4326-67.1323Z"/>
  </g>
  <line id="Baseline-M" style="fill:none;stroke:#27AAE1;opacity:1;stroke-width:0.5;" x1="263" x2="3036" y1="1126" y2="1126"/>
  <line id="Capline-M" style="fill:none;stroke:#27AAE1;opacity:1;stroke-width:0.5;" x1="263" x2="3036" y1="1055.54" y2="1055.54"/>
  <g id="H-reference" style="fill:#27AAE1;stroke:none;" transform="matrix(1 0 0 1 339 1556)">
   <path d="M0.993654 0L3.63775 0L29.3281-67.1323L30.0303-67.1323L30.0303-70.459L28.1226-70.459ZM11.6885-24.4799L46.9815-24.4799L46.2315-26.7285L12.4385-26.7285ZM55.1196 0L57.7637 0L30.6382-70.459L29.4326-70.459L29.4326-67.1323Z"/>
  </g>
  <line id="Baseline-L" style="fill:none;stroke:#27AAE1;opacity:1;stroke-width:0.5;" x1="263" x2="3036" y1="1556" y2="1556"/>
  <line id="Capline-L" style="fill:none;stroke:#27AAE1;opacity:1;stroke-width:0.5;" x1="263" x2="3036" y1="1485.54" y2="1485.54"/>
  <line id="right-margin-Black-S" style="fill:none;stroke:#00AEEF;stroke-width:0.5;opacity:1.0;" x1="2978.03" x2="2978.03" y1="600.785" y2="720.121"/>
  <line id="left-margin-Black-S" style="fill:none;stroke:#FF3B30;stroke-width:0.5;opacity:1.0;" x1="2888.77" x2="2888.77" y1="600.785" y2="720.121"/>
  <line id="right-margin-Regular-S" style="fill:none;stroke:#FF3B30;stroke-width:0.5;opacity:1.0;" x1="1491.89" x2="1491.89" y1="600.785" y2="720.121"/>
  <line id="left-margin-Regular-S" style="fill:none;stroke:#FF3B30;stroke-width:0.5;opacity:1.0;" x1="1407.8" x2="1407.8" y1="600.785" y2="720.121"/>
  <line id="right-margin-Ultralight-S" style="fill:none;stroke:#00AEEF;stroke-width:0.5;opacity:1.0;" x1="599.164" x2="599.164" y1="600.785" y2="720.121"/>
  <line id="left-margin-Ultralight-S" style="fill:none;stroke:#FF3B30;stroke-width:0.5;opacity:1.0;" x1="520.258" x2="520.258" y1="600.785" y2="720.121"/>
 </g>
 <g id="Symbols">
  <g id="Black-S" transform="matrix(1 0 0 1 2888.77 696)">
   <path class="monochrome-0 multicolor-0:tintColor hierarchical-0:secondary SFSymbolsPreviewWireframe" d="M44.6289 5.61523C45.6055 5.61523 46.875 5.17578 47.9004 4.6875C71.0449-6.34766 79.4922-13.4766 79.4922-27.3438L79.4922-54.4922C79.4922-61.6699 77.5879-64.9902 70.9961-67.8223C68.0176-69.0918 55.0781-73.0469 52.5879-73.7793C50.1465-74.5117 46.9727-74.9512 44.6289-74.9512C42.2852-74.9512 39.1113-74.4629 36.6699-73.7793C34.1797-73.0957 21.2402-69.0918 18.2617-67.8223C11.6699-64.9902 9.76562-61.6699 9.76562-54.4922L9.76562-27.3438C9.76562-13.4766 18.2129-6.34766 41.3574 4.6875C42.3828 5.17578 43.6523 5.61523 44.6289 5.61523ZM44.6289-7.91016C44.3848-7.91016 44.1895-7.95898 43.2617-8.54492C26.709-18.9941 22.4121-20.5078 22.4121-28.8086L22.4121-53.125C22.4121-54.7852 22.8516-55.5176 24.0234-56.0059C28.8574-58.0078 38.4766-61.1328 40.2344-61.6699C42.3828-62.3047 43.457-62.5977 44.6289-62.5977C45.8008-62.5977 46.875-62.3047 49.0234-61.6699C50.7812-61.1328 60.4004-58.0078 65.2344-56.0059C66.4062-55.5176 66.8457-54.7852 66.8457-53.125L66.8457-28.8086C66.8457-20.1172 61.377-17.4316 45.9961-8.54492C45.0684-8.00781 44.873-7.91016 44.6289-7.91016Z"/>
   <path class="monochrome-1 multicolor-1:tintColor hierarchical-1:primary SFSymbolsPreviewWireframe" d="M72.168 6.68945C75.8301 10.3027 81.8359 10.3027 85.4004 6.5918C88.8672 3.02734 89.0625-2.83203 85.3516-6.54297L14.502-77.3438C10.8398-81.0059 4.88281-81.0059 1.2207-77.3438C-2.39258-73.7305-2.39258-67.7246 1.2207-64.1113Z"/>
   <path class="monochrome-2 multicolor-2:tintColor hierarchical-2:primary SFSymbolsPreviewWireframe" d="M76.2695 2.53906C77.6367 3.85742 79.8828 3.90625 81.2012 2.53906C82.5195 1.17188 82.5684-1.02539 81.2012-2.39258L10.3516-73.1934C8.98438-74.5605 6.73828-74.5605 5.37109-73.1934C4.05273-71.875 4.05273-69.5801 5.37109-68.2617Z"/>
  </g>
  <g id="Regular-S" transform="matrix(1 0 0 1 1407.8 696)">
   <path class="monochrome-0 multicolor-0:tintColor hierarchical-0:secondary SFSymbolsPreviewWireframe" d="M42.041 4.78516C42.5781 4.78516 43.5547 4.58984 44.6289 4.00391C66.5527-8.00781 74.3164-13.4766 74.3164-27.9297L74.3164-57.3242C74.3164-61.3281 72.4121-62.5488 69.3848-63.8672C65.4297-65.5762 49.2676-71.2891 45.3125-72.6562C44.2871-72.998 43.1641-73.2422 42.041-73.2422C40.918-73.2422 39.7461-72.9004 38.7695-72.6562C34.8145-71.6797 18.6523-65.5273 14.6973-63.8672C11.6699-62.5977 9.76562-61.3281 9.76562-57.3242L9.76562-27.9297C9.76562-13.4766 17.5293-8.05664 39.4531 4.00391C40.5273 4.58984 41.5039 4.78516 42.041 4.78516ZM42.041-3.22266C41.4551-3.22266 40.8691-3.36914 39.5508-4.10156C21.9238-14.6484 16.6992-17.7734 16.6992-29.6387L16.6992-56.0059C16.6992-56.8848 16.8945-57.2754 17.6758-57.6172C23.9258-60.0586 34.4727-63.4277 40.7227-65.918C41.2109-66.1133 41.6504-66.1621 42.041-66.1621C42.4316-66.1621 42.8711-66.1133 43.3594-65.918C49.5605-63.4277 59.9609-59.7656 66.3574-57.6172C67.1875-57.3242 67.334-56.8848 67.334-56.0059L67.334-29.6387C67.334-17.7734 62.1094-14.6484 44.4824-4.10156C43.2129-3.36914 42.627-3.22266 42.041-3.22266Z"/>
   <path class="monochrome-1 multicolor-1:tintColor hierarchical-1:primary SFSymbolsPreviewWireframe" d="M70.3613 6.78711C73.584 9.96094 78.8086 9.96094 81.9336 6.68945C85.0098 3.51562 85.0586-1.5625 81.8848-4.78516L9.7168-76.9043C6.54297-80.0781 1.31836-80.0781-1.85547-76.9043C-4.98047-73.7793-4.98047-68.5059-1.85547-65.3809Z"/>
   <path class="monochrome-2 multicolor-2:tintColor hierarchical-2:primary SFSymbolsPreviewWireframe" d="M73.7305 3.36914C75.0488 4.6875 77.2461 4.6875 78.5156 3.36914C79.7852 2.05078 79.834-0.0488281 78.5156-1.36719L6.34766-73.4863C5.0293-74.8047 2.83203-74.8047 1.51367-73.4863C0.244141-72.2168 0.244141-70.0195 1.51367-68.75Z"/>
  </g>
  <g id="Ultralight-S" transform="matrix(1 0 0 1 520.258 696)">
   <path class="monochrome-0 multicolor-0:tintColor hierarchical-0:secondary SFSymbolsPreviewWireframe" d="M39.4527 2.78713C40.3076 2.78713 41.2842 2.31935 41.9497 1.91506C62.7837-10.8232 69.1397-14.6572 69.1397-26.3858L69.1397-55.1445C69.1397-59.3755 68.0528-60.7778 63.981-62.3233C56.9381-65.0313 49.313-68.1104 42.2246-70.6128C41.2447-70.9546 40.3941-71.1987 39.4527-71.1987C38.5112-71.1987 37.6572-70.9478 36.6807-70.6128C29.6377-67.9561 21.9673-65.0278 14.8789-62.3233C10.8525-60.8267 9.76562-59.3755 9.76562-55.1445L9.76562-26.3858C9.76562-14.6572 16.2578-11.0991 36.9556 1.91506C37.6211 2.31935 38.5977 2.78713 39.4527 2.78713ZM39.4527 0.546357C38.7759 0.546357 37.9629 0.0820041 37.4619-0.287139C19.6079-11.9238 11.9766-15.1397 11.9766-26.46L11.9766-54.7344C11.9766-57.7476 12.5352-58.8647 14.6787-59.706C18.4766-61.2392 33.1558-66.8789 37.0445-68.3247C37.9868-68.747 38.9258-68.9775 39.4527-68.9775C39.9795-68.9775 40.8277-68.7016 41.8154-68.3247C45.7007-66.8789 60.3696-61.2187 64.2232-59.706C66.3701-58.8682 66.9253-57.7476 66.9253-54.7344L66.9253-26.46C66.9253-15.1397 59.2031-12.0601 41.44-0.287139C40.9424 0.0820041 40.1294 0.546357 39.4527 0.546357Z"/>
   <path class="monochrome-1 multicolor-1:tintColor hierarchical-1:primary SFSymbolsPreviewWireframe" d="M68.6812 1.38334C70.1782 2.92242 72.542 3.01324 74.2139 1.69438C76.2003 0.1553 76.2945-2.69774 74.483-4.42188L6.35647-72.545C4.95363-73.9932 2.58983-74.1294 0.823709-72.8174C-1.07523-71.3726-1.16605-68.415 0.551251-66.7432Z"/>
   <path class="monochrome-2 multicolor-2:tintColor hierarchical-2:primary SFSymbolsPreviewWireframe" d="M70.8242-0.717741C71.2344-0.262168 71.8877-0.307578 72.3853-0.717741C72.9283-1.1279 72.8409-1.86522 72.3853-2.27538L4.25881-70.4439C3.84864-70.8086 3.19531-70.8086 2.69433-70.4439C2.19676-70.0371 2.24217-69.293 2.69433-68.8408Z"/>
  </g>
 </g>
</svg>
